<svg id="Group_4510" data-name="Group 4510" xmlns="http://www.w3.org/2000/svg" xmlns:xlink="http://www.w3.org/1999/xlink" width="136.742" height="44.315" viewBox="0 0 136.742 44.315">
  <defs>
    <clipPath id="clip-path">
      <rect id="Rectangle_2948" data-name="Rectangle 2948" width="136.742" height="44.315" fill="none"/>
    </clipPath>
  </defs>
  <path id="Path_4126" data-name="Path 4126" d="M401.852,107.54H398.8V92.3h10.673v3.051h-7.622V98.4h4.571v3.051h-4.571Z" transform="translate(-353.717 -81.862)" fill="#fff"/>
  <g id="Group_4509" data-name="Group 4509">
    <g id="Group_4508" data-name="Group 4508" clip-path="url(#clip-path)">
      <path id="Path_4127" data-name="Path 4127" d="M529.348,107.541H526.3V92.3h6.1a5.953,5.953,0,0,1,1.616.218,6.067,6.067,0,0,1,1.451.617,6.185,6.185,0,0,1,1.233.957,6.131,6.131,0,0,1,1.573,2.695,6.077,6.077,0,0,1,.021,3.147,6.255,6.255,0,0,1-.564,1.414,5.959,5.959,0,0,1-.9,1.233,6.086,6.086,0,0,1-1.191.978l1.691,3.986h-3.243l-1.329-3.072-3.413.021Zm0-12.193v6.1H532.4a2.94,2.94,0,0,0,1.18-.239,3.059,3.059,0,0,0,1.621-1.626,3.056,3.056,0,0,0,0-2.371,3.062,3.062,0,0,0-1.621-1.627,2.94,2.94,0,0,0-1.18-.239Z" transform="translate(-466.801 -81.862)" fill="#fff"/>
      <path id="Path_4128" data-name="Path 4128" d="M681.549,107.54H671.1V92.3h10.45v3.051h-7.4V98.4h5.007v3.051H674.15v3.041h7.4Z" transform="translate(-595.233 -81.862)" fill="#fff"/>
      <path id="Path_4129" data-name="Path 4129" d="M812.15,107.54H801.7V92.3h10.45v3.051h-7.4V98.4h5.007v3.051h-5.007v3.041h7.4Z" transform="translate(-711.07 -81.862)" fill="#fff"/>
      <path id="Path_4130" data-name="Path 4130" d="M944.513,99.917a7.513,7.513,0,0,1-1.042,3.843,7.856,7.856,0,0,1-1.191,1.541,7.544,7.544,0,0,1-1.541,1.2,7.621,7.621,0,0,1-1.823.771,7.514,7.514,0,0,1-2.025.271H932.3V92.295h4.592a7.5,7.5,0,0,1,2.025.271,7.579,7.579,0,0,1,3.364,1.967,7.863,7.863,0,0,1,1.191,1.542,7.512,7.512,0,0,1,1.042,3.843m-3.051,0a4.454,4.454,0,0,0-.356-1.775,4.6,4.6,0,0,0-.978-1.451,4.648,4.648,0,0,0-1.457-.983,4.429,4.429,0,0,0-1.781-.362h-1.52v9.143h1.52a4.483,4.483,0,0,0,1.781-.356,4.55,4.55,0,0,0,2.435-2.434,4.49,4.49,0,0,0,.356-1.781" transform="translate(-826.904 -81.861)" fill="#fff"/>
      <path id="Path_4131" data-name="Path 4131" d="M1085.906,98.481a7.7,7.7,0,0,1-.282,2.089,8.037,8.037,0,0,1-.792,1.882,7.8,7.8,0,0,1-1.233,1.6,8.055,8.055,0,0,1-1.595,1.238,7.81,7.81,0,0,1-3.976,1.079,7.7,7.7,0,0,1-2.089-.282,7.941,7.941,0,0,1-5.518-5.517,7.914,7.914,0,0,1,0-4.183,7.786,7.786,0,0,1,.8-1.882,8.023,8.023,0,0,1,1.238-1.595,7.817,7.817,0,0,1,1.6-1.233,8.063,8.063,0,0,1,1.882-.792,7.909,7.909,0,0,1,4.183,0,7.869,7.869,0,0,1,5.5,5.5,7.76,7.76,0,0,1,.282,2.094m-3.03,0a4.714,4.714,0,0,0-.383-1.887,4.831,4.831,0,0,0-2.578-2.578,4.856,4.856,0,0,0-3.779,0,4.983,4.983,0,0,0-1.542,1.037,4.855,4.855,0,0,0-1.042,1.541,4.718,4.718,0,0,0-.383,1.887,4.643,4.643,0,0,0,.383,1.876,4.912,4.912,0,0,0,2.584,2.578,4.856,4.856,0,0,0,3.779,0,4.848,4.848,0,0,0,1.542-1.042,4.99,4.99,0,0,0,1.036-1.536,4.639,4.639,0,0,0,.383-1.876" transform="translate(-949.165 -80.361)" fill="#fff"/>
      <path id="Path_4132" data-name="Path 4132" d="M402.731,287.056h-.555l-1.893-2.073h-1.494v2.073h-.422v-5.477h2.41a1.693,1.693,0,0,1,1.8,1.706,1.617,1.617,0,0,1-1.776,1.674Zm-3.943-2.472h1.94a1.225,1.225,0,0,0,1.385-1.307,1.262,1.262,0,0,0-1.338-1.306h-1.987Z" transform="translate(-353.331 -249.747)" fill="#fff"/>
      <path id="Path_4133" data-name="Path 4133" d="M490.7,284.106h3.208v.383H490.7v2.159h3.458v.407h-3.873v-5.477h3.779v.4H490.7Z" transform="translate(-434.858 -249.748)" fill="#fff"/>
      <path id="Path_4134" data-name="Path 4134" d="M581.55,281.579l3.685,4.53v-4.53h.414v5.477h-.164l-3.693-4.522v4.522h-.422v-5.477Z" transform="translate(-515.648 -249.747)" fill="#fff"/>
      <path id="Path_4135" data-name="Path 4135" d="M675.335,282.026h-1.979v-.375h4.381v.375h-1.979v5.093h-.422Z" transform="translate(-597.234 -249.811)" fill="#fff"/>
      <path id="Path_4136" data-name="Path 4136" d="M766.178,287.056l-.6-1.346h-3.27l-.594,1.346h-.454l2.457-5.477h.462l2.456,5.477Zm-.767-1.737-1.471-3.333-1.471,3.333Z" transform="translate(-675.199 -249.747)" fill="#fff"/>
      <path id="Path_4137" data-name="Path 4137" d="M863.216,281.579v5.078H866.3v.4h-3.5v-5.477Z" transform="translate(-765.257 -249.747)" fill="#fff"/>
      <path id="Path_4138" data-name="Path 4138" d="M948.718,282.023a1.773,1.773,0,0,0-1.659-.743c-.642,0-1.659.235-1.659,1.111,0,.7.751.861,1.674,1.033,1.056.2,2.151.391,2.151,1.572-.008,1.236-1.252,1.534-2.167,1.534a2.463,2.463,0,0,1-2.245-1.189l.376-.188a2.146,2.146,0,0,0,1.87.993c.673,0,1.745-.188,1.745-1.158.008-.822-.9-1-1.8-1.174-1-.2-2.026-.4-2.026-1.408-.024-1.158,1.181-1.518,2.081-1.518a2.106,2.106,0,0,1,2,.931Z" transform="translate(-838.005 -249.134)" fill="#fff"/>
      <path id="Path_4139" data-name="Path 4139" d="M16.386,10.154l-2.167-.8L6.238,6.4,4.22,4.328l9.631,3.688L12.435,6.444,2.68,2.75,0,0,13.791,5.665l.849.979,1.324,1.53a2.326,2.326,0,0,0-.044.472,2.656,2.656,0,0,0,.466,1.508" fill="#fff"/>
      <path id="Path_4140" data-name="Path 4140" d="M187.956,6.444l-1.413,1.571,9.631-3.688L194.153,6.4l-7.977,2.95-2.164.8a2.667,2.667,0,0,0,.463-1.5,2.594,2.594,0,0,0-.044-.475l1.324-1.527.849-.979L200.391,0l-2.68,2.75Z" transform="translate(-163.21)" fill="#fff"/>
      <path id="Path_4141" data-name="Path 4141" d="M133.655,19.266a4.431,4.431,0,0,0-8.383,2,4.44,4.44,0,0,0,.459,1.964,4.422,4.422,0,0,0,6.156,1.888s0,0,.006,0a4.409,4.409,0,0,0,1.78-1.885,4.267,4.267,0,0,0,.4-1.258,4.341,4.341,0,0,0,.057-.706,4.392,4.392,0,0,0-.478-2" transform="translate(-111.11 -14.933)" fill="#fff"/>
      <path id="Path_4142" data-name="Path 4142" d="M51.862,126.011a6.924,6.924,0,0,1-.716-.458c-2.358-1.754-3.963-6.577-4.681-10.507-.94-5.151-.626-9.459.84-11.524,2.155-3.037,7.624-4.119,12.024-4.119s9.868,1.082,12.019,4.12c1.466,2.065,1.781,6.373.842,11.524-.717,3.929-2.321,8.752-4.674,10.5a6.187,6.187,0,0,1-.732.466l-1.182.651.28-1.32a3.706,3.706,0,0,0,.085-.774,6.641,6.641,0,1,0-13.281,0,3.9,3.9,0,0,0,.083.775l.27,1.321Zm7.467-21.823a4.521,4.521,0,0,0-2.574.718.367.367,0,0,0-.141.251.418.418,0,0,0,.091.317l2.211,2.712a.53.53,0,0,0,.415.2.516.516,0,0,0,.408-.195l2.214-2.711a.415.415,0,0,0,.092-.318.367.367,0,0,0-.147-.253,4.5,4.5,0,0,0-2.568-.718" transform="translate(-40.739 -88.165)" fill="#242b35"/>
      <path id="Path_4143" data-name="Path 4143" d="M75.757,108.726c-3.645-5.146-19.384-5.146-23.035,0-2.965,4.176-.232,18.248,3.7,21.176a6.251,6.251,0,0,0,.652.417,4.5,4.5,0,0,1-.1-.9,7.258,7.258,0,0,1,14.517,0,4.34,4.34,0,0,1-.1.9,5.644,5.644,0,0,0,.661-.42c3.932-2.928,6.662-17,3.7-21.176m-8.414,1.989-2.211,2.709a1.148,1.148,0,0,1-1.782,0l-2.208-2.709a1.019,1.019,0,0,1,.167-1.464,5.568,5.568,0,0,1,5.862,0,1.014,1.014,0,0,1,.173,1.464" transform="translate(-45.651 -93.012)" fill="#fff"/>
      <path id="Path_4144" data-name="Path 4144" d="M119.6,271.517a5.713,5.713,0,0,0-5.714,5.714c0,3.153,5.714,7.907,5.714,7.907s5.714-4.753,5.714-7.907a5.713,5.713,0,0,0-5.714-5.714m0,8.237a2.735,2.735,0,1,1,2.733-2.734,2.733,2.733,0,0,1-2.733,2.734" transform="translate(-101.008 -240.823)" fill="#fff"/>
      <path id="Path_4145" data-name="Path 4145" d="M141.573,29.857a3.339,3.339,0,1,1-3.339-3.336,3.283,3.283,0,0,1,1.174.213,3.336,3.336,0,0,1,2.165,3.123" transform="translate(-119.646 -23.523)" fill="#fff"/>
      <path id="Path_4146" data-name="Path 4146" d="M141.573,29.487a3.856,3.856,0,0,1-3.988,3.71,4.185,4.185,0,0,1-1.4-.237,3.586,3.586,0,0,1-1.287-2.732,3.854,3.854,0,0,1,3.988-3.706,4.186,4.186,0,0,1,1.4.237,3.575,3.575,0,0,1,1.288,2.728" transform="translate(-119.646 -23.524)" fill="#131b1c"/>
    </g>
  </g>
</svg>
